HIERARCHY
ROOT Hips
{
	OFFSET 0.000000 0.000000 0.000000 
	CHANNELS 6 Xposition Yposition Zposition Zrotation Yrotation Xrotation
	JOINT LeftUpLeg
	{
		OFFSET 1.363060 -1.794630 0.839290 
		CHANNELS 3 Zrotation Yrotation Xrotation
		JOINT LeftLeg
		{
			OFFSET 2.448110 -6.726130 0.000000 
			CHANNELS 3 Zrotation Yrotation Xrotation
			JOINT LeftFoot
			{
				OFFSET 2.562200 -7.039590 0.000000 
				CHANNELS 3 Zrotation Yrotation Xrotation
				JOINT LeftToeBase
				{
					OFFSET 0.157640 -0.433110 2.322550 
					CHANNELS 3 Zrotation Yrotation Xrotation
					End Site
					{
						OFFSET 0.000000 0.000000 0.000000 
					}
				}
			}
		}
	}
	JOINT RightUpLeg
	{
		OFFSET -1.305520 -1.794630 0.839290 
		CHANNELS 3 Zrotation Yrotation Xrotation
		JOINT RightLeg
		{
			OFFSET -2.542530 -6.985550 0.000000 
			CHANNELS 3 Zrotation Yrotation Xrotation
			JOINT RightFoot
			{
				OFFSET -2.568260 -7.056230 0.000000 
				CHANNELS 3 Zrotation Yrotation Xrotation
				JOINT RightToeBase
				{
					OFFSET -0.164730 -0.452590 2.363150 
					CHANNELS 3 Zrotation Yrotation Xrotation
					End Site
					{
						OFFSET 0.000000 0.000000 0.000000 
					}
				}
			}
		}
	}
	JOINT Spine
	{
		OFFSET 0.028270 2.035590 -0.193380 
		CHANNELS 3 Zrotation Yrotation Xrotation
		JOINT Spine1
		{
			OFFSET 0.056720 2.048850 -0.042750 
			CHANNELS 3 Zrotation Yrotation Xrotation
			JOINT Neck1
			{
				OFFSET -0.054170 1.746240 0.172020 
				CHANNELS 3 Zrotation Yrotation Xrotation
				JOINT Head
				{
					OFFSET 0.104070 1.761360 -0.123970 
					CHANNELS 3 Zrotation Yrotation Xrotation
					End Site
					{
						OFFSET 0.000000 0.000000 0.000000 
					}
				}
			}
			JOINT LeftArm
			{
				OFFSET 3.362410 1.200890 -0.311210 
				CHANNELS 3 Zrotation Yrotation Xrotation
				JOINT LeftForeArm
				{
					OFFSET 4.983000 -0.000000 -0.000000 
					CHANNELS 3 Zrotation Yrotation Xrotation
					JOINT LeftHand
					{
						OFFSET 3.483560 -0.000000 -0.000000 
						CHANNELS 3 Zrotation Yrotation Xrotation
						JOINT LeftHandIndex1
						{
							OFFSET 0.715260 -0.000000 -0.000000 
							CHANNELS 3 Zrotation Yrotation Xrotation
							End Site
							{
								OFFSET 0.000000 0.000000 0.000000 
							}
						}
					}
				}
			}
			JOINT RightArm
			{
				OFFSET -3.136600 1.374050 -0.404650 
				CHANNELS 3 Zrotation Yrotation Xrotation
				JOINT RightForeArm
				{
					OFFSET -5.241900 -0.000000 -0.000000 
					CHANNELS 3 Zrotation Yrotation Xrotation
					JOINT RightHand
					{
						OFFSET -3.444170 -0.000000 -0.000000 
						CHANNELS 3 Zrotation Yrotation Xrotation
						JOINT RightHandIndex1
						{
							OFFSET -0.622530 -0.000000 -0.000000 
							CHANNELS 3 Zrotation Yrotation Xrotation
							End Site
							{
								OFFSET 0.000000 0.000000 0.000000 
							}
						}
					}
				}
			}
		}
	}
}
MOTION
Frames: 10
Frame Time: 0.041667
13.022081 15.804943 -14.343856 -13.472074 -27.019792 51.262852 0.154502 -4.575076 -70.020247 7.642417 22.670871 58.165555 1.721604 10.315448 -30.359994 0.754800 -5.548700 -15.480400 24.915009 38.743753 -75.884590 -2.608257 -19.169948 44.114196 -0.721921 1.972904 -18.150194 -0.145400 2.457400 -6.771400 4.792087 1.206839 -3.161509 2.825357 1.065781 -18.524750 8.886720 2.996660 0.980366 3.824500 1.480100 -1.089100 -94.734500 11.922340 32.038880 38.502728 -40.174776 -15.497846 0.498127 0.626353 30.972378 -7.125000 0.000000 0.000000 88.402845 -23.924547 40.587042 -85.916244 50.686513 -54.093264 -0.767334 0.160116 -6.422982 7.125000 0.000000 0.000000 
13.024192 15.795445 -14.350505 -13.614831 -26.805224 51.565444 0.454645 -4.533407 -70.394919 7.674012 22.711143 58.245395 1.741564 10.147030 -30.370358 0.716500 -5.409100 -15.079300 24.935475 38.845689 -76.184534 -2.591368 -19.170866 44.080778 -0.718289 1.941135 -18.095144 -0.139900 2.410600 -6.641900 4.830123 1.208675 -3.137211 2.800640 1.054482 -18.452993 8.947655 3.019599 0.916108 3.877100 1.487000 -1.178200 -94.768490 11.814881 31.849193 38.641101 -40.288919 -15.607611 0.501718 0.621512 30.887892 -7.125000 0.000000 0.000000 88.384820 -23.769635 40.648487 -86.036612 50.708792 -54.203617 -0.767165 0.156704 -6.346834 7.125000 0.000000 0.000000 
13.023137 15.805366 -14.343645 -13.809797 -26.789027 51.496858 0.592360 -4.462918 -70.127106 7.673617 22.690463 58.219309 1.762106 10.025193 -30.442312 0.688800 -5.305700 -14.782700 25.321510 38.879296 -75.787674 -2.568214 -19.136193 43.996153 -0.708095 2.150833 -18.132818 -0.108900 2.127900 -5.859400 4.795188 1.327256 -3.028596 2.614222 1.080492 -18.400482 8.954980 2.947573 0.785190 3.873700 1.445600 -1.278900 -94.653256 11.688523 31.956573 38.727777 -40.356321 -15.683797 0.504691 0.619782 30.766298 -7.125000 0.000000 0.000000 88.592768 -23.635697 40.419529 -86.007487 50.739454 -54.187179 -0.762163 0.163367 -6.090065 7.125000 0.000000 0.000000 
13.026092 15.806843 -14.348500 -13.705465 -26.738461 51.643506 0.624743 -4.574596 -70.356560 7.643277 22.690777 58.143692 1.750942 10.037165 -30.372393 0.660300 -5.197100 -14.471700 25.143753 38.811812 -76.036624 -2.533693 -19.112787 43.876301 -0.697770 2.193245 -18.071191 -0.097300 2.011800 -5.538300 4.734594 1.424930 -3.043367 2.437269 1.107370 -18.440789 8.780125 2.742961 0.536565 3.740600 1.331300 -1.463000 -94.451769 11.701344 32.397179 38.742755 -40.365791 -15.710075 0.506190 0.621556 30.597316 -7.125000 0.000000 0.000000 88.863282 -23.648437 40.088492 -86.014737 50.760318 -54.203770 -0.758624 0.166518 -5.913427 7.125000 0.000000 0.000000 
13.025775 15.814653 -14.341957 -13.718092 -26.860684 51.527891 0.484604 -4.518046 -70.087016 7.609777 22.653297 58.043714 1.746995 10.035812 -30.360374 0.626600 -5.065500 -14.095400 25.218563 38.827960 -75.758764 -2.500715 -19.060741 43.738222 -0.690541 2.207826 -18.014102 -0.108700 2.126300 -5.854700 4.723466 1.475188 -2.987799 2.443123 1.137185 -18.516955 8.606221 2.704724 0.287695 3.654600 1.304700 -1.646200 -94.530268 11.686950 32.479720 38.735618 -40.371337 -15.719424 0.503340 0.619373 30.543964 -7.125000 0.000000 0.000000 88.698925 -23.696517 40.244740 -86.241089 50.747934 -54.433051 -0.754318 0.160959 -6.055082 7.125000 0.000000 0.000000 
13.022398 15.831856 -14.335413 -13.741471 -26.950781 51.160362 0.308288 -4.440857 -69.529840 7.570804 22.589758 57.914153 1.752232 9.958019 -30.367830 0.615900 -5.022600 -13.973000 25.562196 38.768925 -75.109341 -2.475698 -19.010896 43.624246 -0.679859 2.322557 -17.985722 -0.116400 2.200000 -6.058700 4.907180 1.422994 -3.070564 2.633596 1.103784 -18.374033 8.665480 2.912768 0.087878 3.784200 1.409300 -1.817800 -94.909920 11.676235 32.079641 38.801350 -40.446128 -15.781514 0.503569 0.609081 30.771831 -7.125000 0.000000 0.000000 88.171695 -23.776476 40.804644 -86.476309 50.711573 -54.686667 -0.744505 0.158183 -6.267451 7.125000 0.000000 0.000000 
13.025036 15.829851 -14.339002 -13.757002 -26.941946 51.369243 0.339171 -4.418918 -69.731631 7.527688 22.580836 57.797785 1.738518 10.017486 -30.322898 0.615600 -5.021600 -13.970300 25.510637 38.775270 -75.315626 -2.433193 -18.975833 43.475595 -0.648552 2.466564 -17.773161 -0.097900 2.017300 -5.553400 4.972887 1.386785 -3.099653 2.816864 1.111973 -18.452622 8.745043 3.008939 -0.065779 3.904600 1.458300 -1.940900 -95.229967 11.785681 31.715157 38.950100 -40.564903 -15.893405 0.510005 0.599941 31.125078 -7.125000 0.000000 0.000000 87.869892 -23.910078 41.108906 -86.602703 50.677284 -54.824535 -0.738305 0.157498 -6.425507 7.125000 0.000000 0.000000 
13.021870 15.834811 -14.339213 -13.747356 -26.992169 51.249151 0.297221 -4.424514 -69.549746 7.505136 22.554199 57.725863 1.755126 9.920934 -30.381824 0.614100 -5.015500 -13.952700 25.587196 38.766007 -75.119035 -2.425303 -18.959104 43.439339 -0.650948 2.385629 -17.739609 -0.090400 1.938700 -5.336200 4.921155 1.463101 -3.071334 2.726748 1.140660 -18.581455 8.727297 2.889014 -0.232434 3.859200 1.392600 -2.024800 -95.044736 11.836143 31.883623 39.060402 -40.632833 -15.974455 0.516455 0.601089 31.245815 -7.125000 0.000000 0.000000 88.115867 -23.911480 40.883401 -86.525460 50.692939 -54.743898 -0.742552 0.157267 -6.556375 7.125000 0.000000 0.000000 
13.007095 15.864362 -14.326865 -13.803610 -27.124447 50.658073 0.136687 -4.364165 -68.623216 7.485712 22.473090 57.632858 1.796505 9.689386 -30.534866 0.588700 -4.912500 -13.659100 26.047884 38.771544 -74.078182 -2.425154 -18.907282 43.394929 -0.670576 2.335896 -17.901271 -0.080800 1.833600 -5.045900 4.850876 1.522990 -2.916849 2.625239 1.160471 -18.674619 8.690215 2.864763 -0.553232 3.792100 1.371400 -2.203700 -94.700762 11.737355 32.154801 39.068938 -40.627014 -15.979821 0.516856 0.606655 31.161982 -7.125000 0.000000 0.000000 88.261016 -23.827267 40.856343 -86.450988 50.713984 -54.683712 -0.742106 0.159007 -6.622450 7.125000 0.000000 0.000000 
13.025564 15.814970 -14.365492 -13.561062 -27.119051 52.104517 0.332291 -4.424007 -70.676581 7.531442 22.644953 57.842034 1.766630 9.811183 -30.347792 0.574600 -4.854400 -13.493800 24.596377 38.951033 -76.558428 -2.404412 -18.962915 43.370265 -0.615299 2.564083 -17.507057 -0.070300 1.710100 -4.705200 4.889581 1.408637 -3.110816 2.854298 1.158588 -18.349766 8.660548 2.996638 -0.854267 3.801500 1.434100 -2.408900 -94.735572 11.628388 32.063576 39.065244 -40.643006 -15.979538 0.511483 0.605954 31.204381 -7.125000 0.000000 0.000000 88.005858 -23.736419 41.101504 -86.445484 50.719464 -54.688610 -0.741030 0.158684 -6.918603 7.125000 0.000000 0.000000 
